<svg width="24" height="14" viewBox="0 0 24 14" fill="none" xmlns="http://www.w3.org/2000/svg">
<path d="M24 7.0001C24 6.73489 23.8946 6.48053 23.7071 6.293C23.5196 6.10546 23.2652 6.0001 23 6.0001L3.414 6.00011L7.706 1.70811C7.88816 1.5195 7.98895 1.2669 7.98667 1.0047C7.98439 0.742507 7.87923 0.491695 7.69382 0.306286C7.50841 0.120878 7.2576 0.0157104 6.9954 0.0134321C6.7332 0.0111538 6.4806 0.111948 6.292 0.294106L0.291999 6.29411C0.199468 6.3861 0.126033 6.49548 0.0759214 6.61596C0.0258096 6.73643 8.91419e-06 6.86563 -6.11147e-07 6.99611L-6.10798e-07 7.00011C-5.99433e-07 7.13011 0.0259985 7.26011 0.0779985 7.38211C0.127839 7.50334 0.201261 7.61347 0.294 7.70611L6.294 13.7061C6.4826 13.8883 6.7352 13.9891 6.9974 13.9868C7.2596 13.9845 7.51041 13.8793 7.69582 13.6939C7.88123 13.5085 7.98639 13.2577 7.98867 12.9955C7.99095 12.7333 7.89016 12.4807 7.708 12.2921L3.414 8.00011L23 8.0001C23.2652 8.0001 23.5196 7.89475 23.7071 7.70721C23.8946 7.51967 24 7.26532 24 7.0001Z" fill="black"/>
</svg>
