<svg width="16" height="74" viewBox="0 0 16 74" fill="none" xmlns="http://www.w3.org/2000/svg">
<path d="M8 54C5.879 54.0024 3.84555 54.846 2.34578 56.3458C0.846002 57.8456 0.00238211 59.879 0 62C0 65.255 2.363 67.958 4.866 70.819C5.658 71.725 6.478 72.662 7.208 73.61C7.30142 73.7312 7.4214 73.8293 7.55871 73.8968C7.69602 73.9644 7.84699 73.9995 8 73.9995C8.15301 73.9995 8.30398 73.9644 8.44129 73.8968C8.5786 73.8293 8.69858 73.7312 8.792 73.61C9.522 72.662 10.342 71.725 11.134 70.819C13.637 67.958 16 65.255 16 62C15.9976 59.879 15.154 57.8456 13.6542 56.3458C12.1544 54.846 10.121 54.0024 8 54ZM8 65C7.40666 65 6.82664 64.8241 6.33329 64.4944C5.83994 64.1648 5.45542 63.6962 5.22836 63.1481C5.0013 62.5999 4.94189 61.9967 5.05764 61.4147C5.1734 60.8328 5.45912 60.2982 5.87868 59.8787C6.29824 59.4591 6.83279 59.1734 7.41473 59.0576C7.99667 58.9419 8.59987 59.0013 9.14805 59.2284C9.69623 59.4554 10.1648 59.8399 10.4944 60.3333C10.8241 60.8266 11 61.4067 11 62C11 62.7956 10.6839 63.5587 10.1213 64.1213C9.55871 64.6839 8.79565 65 8 65Z" fill="white" fill-opacity="0.7"/>
<line x1="8.25" y1="14" x2="8.25" y2="52" stroke="white" stroke-width="0.5" stroke-dasharray="3 3"/>
<circle cx="8" cy="6" r="5.5" stroke="white" stroke-opacity="0.7"/>
</svg>
