<svg width="22" height="16" viewBox="0 0 22 16" fill="none" xmlns="http://www.w3.org/2000/svg">
<path d="M20.25 0.5H5.25C4.85231 0.500455 4.47105 0.658636 4.18984 0.939842C3.90864 1.22105 3.75045 1.60231 3.75 2V13.25C3.75 13.4489 3.67098 13.6397 3.53033 13.7803C3.38968 13.921 3.19891 14 3 14C2.80109 14 2.61032 13.921 2.46967 13.7803C2.32902 13.6397 2.25 13.4489 2.25 13.25V4.25C2.25 4.05109 2.17098 3.86032 2.03033 3.71967C1.88968 3.57902 1.69891 3.5 1.5 3.5C1.30109 3.5 1.11032 3.57902 0.96967 3.71967C0.829018 3.86032 0.75 4.05109 0.75 4.25V13.26C0.753307 13.8548 0.991738 14.4241 1.41326 14.8438C1.83479 15.2634 2.40519 15.4993 3 15.5H19.5C20.0965 15.4993 20.6684 15.262 21.0902 14.8402C21.512 14.4184 21.7493 13.8465 21.75 13.25V2C21.7495 1.60231 21.5914 1.22105 21.3102 0.939842C21.029 0.658636 20.6477 0.500455 20.25 0.5ZM16.5 10.25H9C8.80109 10.25 8.61032 10.171 8.46967 10.0303C8.32902 9.88968 8.25 9.69891 8.25 9.5C8.25 9.30109 8.32902 9.11032 8.46967 8.96967C8.61032 8.82902 8.80109 8.75 9 8.75H16.5C16.6989 8.75 16.8897 8.82902 17.0303 8.96967C17.171 9.11032 17.25 9.30109 17.25 9.5C17.25 9.69891 17.171 9.88968 17.0303 10.0303C16.8897 10.171 16.6989 10.25 16.5 10.25ZM16.5 7.25H9C8.80109 7.25 8.61032 7.17098 8.46967 7.03033C8.32902 6.88968 8.25 6.69891 8.25 6.5C8.25 6.30109 8.32902 6.11032 8.46967 5.96967C8.61032 5.82902 8.80109 5.75 9 5.75H16.5C16.6989 5.75 16.8897 5.82902 17.0303 5.96967C17.171 6.11032 17.25 6.30109 17.25 6.5C17.25 6.69891 17.171 6.88968 17.0303 7.03033C16.8897 7.17098 16.6989 7.25 16.5 7.25Z" fill="white"/>
</svg>
