<svg width="24" height="24" viewBox="0 0 24 24" fill="none" xmlns="http://www.w3.org/2000/svg">
<path d="M12 9.71997C14.4853 9.71997 16.5 7.70525 16.5 5.21997C16.5 2.73469 14.4853 0.719971 12 0.719971C9.51472 0.719971 7.5 2.73469 7.5 5.21997C7.5 7.70525 9.51472 9.71997 12 9.71997Z" fill="white"/>
<path d="M23.1451 20.13C22.6783 18.0047 21.6079 16.0593 20.0626 14.5275C19.6875 14.1511 19.281 13.8074 18.8476 13.5C16.8736 12.0193 14.4676 11.2287 12.0001 11.25C8.98291 11.2345 6.08204 12.4127 3.93006 14.5275C2.38469 16.0593 1.31435 18.0047 0.847562 20.13C0.766427 20.5058 0.77081 20.895 0.860386 21.2689C0.949962 21.6428 1.12244 21.9918 1.36506 22.29C1.61633 22.5946 1.93274 22.839 2.29099 23.0052C2.64924 23.1713 3.04019 23.255 3.43506 23.25H20.5651C20.9611 23.2502 21.3521 23.1614 21.7091 22.99C22.0661 22.8186 22.38 22.5691 22.6276 22.26C22.8658 21.9652 23.0358 21.6214 23.1253 21.2531C23.2148 20.8848 23.2215 20.5012 23.1451 20.13Z" fill="white"/>
</svg>
