<svg width="120" height="120" viewBox="0 0 120 120" fill="none" xmlns="http://www.w3.org/2000/svg">
<path d="M74.1073 85.1423C73.7497 85.1453 73.3963 85.0647 73.0753 84.9071L60.0001 78.7199L46.9249 84.9071C46.5354 85.0935 46.1029 85.1713 45.6729 85.1325C45.2429 85.0936 44.8314 84.9395 44.4817 84.6863C44.1344 84.4317 43.8621 84.0884 43.6932 83.6923C43.5243 83.2962 43.465 82.862 43.5217 82.4351L45.3985 68.0783L35.4289 57.5615C35.1326 57.248 34.9262 56.8604 34.8316 56.4395C34.737 56.0186 34.7576 55.5799 34.8912 55.1698C35.0248 54.7596 35.2666 54.393 35.5909 54.1085C35.9153 53.8241 36.3103 53.6324 36.7345 53.5535L50.9713 50.8991L57.8929 38.1791C58.1198 37.8264 58.4316 37.5363 58.7998 37.3354C59.168 37.1345 59.5807 37.0292 60.0001 37.0292C60.4195 37.0292 60.8322 37.1345 61.2004 37.3354C61.5685 37.5363 61.8804 37.8264 62.1073 38.1791L69.0289 50.8991L83.2657 53.5535C83.6898 53.6324 84.0849 53.8241 84.4092 54.1085C84.7336 54.393 84.9753 54.7596 85.1089 55.1698C85.2426 55.5799 85.2631 56.0186 85.1685 56.4395C85.0739 56.8604 84.8676 57.248 84.5713 57.5615L74.6113 68.0783L76.4881 82.4351C76.532 82.7751 76.5025 83.1205 76.4017 83.4482C76.3009 83.7758 76.1311 84.078 75.9037 84.3345C75.6763 84.591 75.3966 84.7958 75.0834 84.9352C74.7703 85.0745 74.4309 85.1452 74.0881 85.1423H74.1073ZM60.0001 73.6223C60.3574 73.6218 60.7102 73.7022 61.0321 73.8575L71.1553 78.6575L69.7153 67.5359C69.669 67.1829 69.7019 66.8241 69.8115 66.4854C69.9211 66.1466 70.1046 65.8365 70.3489 65.5775L78.0625 57.4175L67.0225 55.3583C66.6725 55.2929 66.3415 55.1504 66.0534 54.9412C65.7653 54.732 65.5274 54.4613 65.3569 54.1487L60.0001 44.3471L54.6385 54.1967C54.468 54.5093 54.23 54.78 53.9419 54.9892C53.6539 55.1984 53.3228 55.3409 52.9729 55.4063L41.9329 57.4655L49.6465 65.6255C49.8907 65.8845 50.0743 66.1946 50.1839 66.5334C50.2935 66.8721 50.3263 67.231 50.2801 67.5839L48.8401 78.7055L58.9633 73.9055C59.2838 73.7379 59.6385 73.6459 60.0001 73.6367V73.6223Z" fill="white"/>
<path d="M18.9601 74.3999C18.6169 74.4029 18.277 74.3321 17.9635 74.1925C17.6499 74.0529 17.3699 73.8476 17.1425 73.5906C16.915 73.3335 16.7453 73.0307 16.6448 72.7024C16.5444 72.3742 16.5155 72.0283 16.5601 71.688L18.0385 60.4367L10.2577 52.1999C9.96145 51.8867 9.75503 51.4995 9.66015 51.0789C9.56527 50.6583 9.58544 50.22 9.71854 49.8099C9.85163 49.3998 10.0927 49.0331 10.4165 48.7484C10.7403 48.4637 11.1348 48.2715 11.5585 48.1919L22.7233 46.0799L28.1281 36.1103C28.3347 35.7307 28.64 35.4139 29.0118 35.1934C29.3835 34.9729 29.8079 34.8568 30.2401 34.8575C30.671 34.8572 31.0941 34.9729 31.4649 35.1925C31.8357 35.4121 32.1405 35.7275 32.3473 36.1055L37.3873 45.3695C37.6922 45.9284 37.7626 46.5855 37.583 47.1963C37.4034 47.807 36.9886 48.3215 36.4297 48.6263C35.8709 48.9312 35.2138 49.0016 34.603 48.8221C33.9922 48.6425 33.4778 48.2276 33.1729 47.6687L30.2401 42.2879L26.4001 49.3919C26.2296 49.7059 25.9912 49.9779 25.7022 50.188C25.4132 50.3981 25.081 50.541 24.7297 50.6063L16.7713 52.0991L22.3345 57.9743C22.5803 58.2335 22.7651 58.5442 22.8756 58.8838C22.986 59.2234 23.0193 59.5834 22.9729 59.9375L21.9169 67.9391L29.2033 64.4687C29.5257 64.3152 29.8783 64.2355 30.2353 64.2355C30.5924 64.2355 30.945 64.3152 31.2673 64.4687L38.3713 67.8287C38.892 68.1314 39.2798 68.6187 39.4579 69.194C39.6359 69.7693 39.5912 70.3905 39.3326 70.9344C39.0739 71.4782 38.6203 71.905 38.0617 72.1299C37.5031 72.3549 36.8803 72.3616 36.3169 72.1487L30.2449 69.2687L19.9969 74.1744C19.6725 74.326 19.3182 74.403 18.9601 74.3999ZM101.04 74.3999C100.681 74.4 100.327 74.3197 100.003 74.1647L89.7601 69.2927L83.6881 72.1727C83.4012 72.3395 83.0828 72.445 82.7531 72.4825C82.4233 72.52 82.0894 72.4887 81.7723 72.3905C81.4553 72.2924 81.1621 72.1296 80.9112 71.9124C80.6602 71.6952 80.4571 71.4283 80.3146 71.1286C80.1721 70.8289 80.0932 70.5028 80.0831 70.1711C80.073 69.8394 80.1317 69.5092 80.2557 69.2013C80.3797 68.8935 80.5661 68.6147 80.8033 68.3826C81.0405 68.1505 81.3233 67.97 81.6337 67.8527L88.7377 64.4927C89.0601 64.3392 89.4127 64.2595 89.7697 64.2595C90.1268 64.2595 90.4793 64.3392 90.8017 64.4927L98.0881 67.9632L97.0321 59.9615C96.9857 59.6074 97.019 59.2474 97.1294 58.9078C97.2399 58.5682 97.4247 58.2575 97.6705 57.9983L103.234 52.1231L95.2753 50.6303C94.924 50.565 94.5918 50.4221 94.3028 50.212C94.0138 50.0019 93.7754 49.7299 93.6049 49.4159L89.7649 42.3119L86.8369 47.6927C86.532 48.2516 86.0176 48.6665 85.4068 48.8461C84.7961 49.0256 84.139 48.9552 83.5801 48.6503C83.0213 48.3455 82.6064 47.831 82.4268 47.2203C82.2472 46.6095 82.3176 45.9524 82.6225 45.3935L87.6625 36.1295C87.8694 35.7515 88.1742 35.4361 88.5449 35.2165C88.9157 34.9969 89.3388 34.8812 89.7697 34.8815C90.2011 34.8817 90.6245 34.9981 90.9953 35.2186C91.3662 35.4391 91.6707 35.7554 91.8769 36.1343L97.2769 46.0799L108.442 48.1727C108.865 48.2523 109.26 48.4445 109.584 48.7292C109.907 49.0139 110.149 49.3806 110.282 49.7907C110.415 50.2008 110.435 50.6391 110.34 51.0597C110.245 51.4803 110.039 51.8675 109.743 52.1807L101.938 60.4271L103.416 71.6783C103.461 72.0187 103.432 72.3646 103.331 72.6928C103.231 73.0211 103.061 73.3239 102.834 73.581C102.606 73.838 102.326 74.0433 102.013 74.1829C101.699 74.3225 101.359 74.3933 101.016 74.3904L101.04 74.3999Z" fill="white"/>
</svg>
